<svg width="96" height="30" viewBox="0 0 96 30" fill="none" xmlns="http://www.w3.org/2000/svg">
<g clip-path="url(#clip0_1_5515)">
<path d="M72.8609 13.1744C72.0584 13.1744 71.4231 13.8097 71.4231 14.5788C71.4231 15.3478 72.0584 15.9832 72.8609 15.9832C73.6634 15.9832 74.2988 15.3478 74.2988 14.5788C74.2988 13.8097 73.6634 13.1744 72.8609 13.1744Z" fill="white"/>
<path d="M47.5485 7.08868H34.1399V9.3959H47.5485V7.08868Z" fill="white"/>
<path d="M40.3594 11.3019H38.0188V22.0689H40.3594V11.3019Z" fill="white"/>
<path d="M43.7365 11.3019H41.3959V22.0689H43.7365V11.3019Z" fill="white"/>
<path d="M86.002 22.1024H87.9748V16.4514L86.002 14.278V22.1024Z" fill="white"/>
<path d="M93.6596 7.08884V17.6218L82.5917 5.48383V22.1024H84.9323V11.5695L96.0002 23.7074V7.08884H93.6596Z" fill="white"/>
<path d="M72.8611 7.08868C68.6814 7.08868 65.2708 10.4659 65.2708 14.5788C65.2708 18.6916 68.6814 22.0688 72.8611 22.0688C77.0409 22.0688 80.4515 18.6916 80.4515 14.5788C80.4515 10.4659 77.0409 7.08868 72.8611 7.08868ZM72.8611 19.7951C69.952 19.7951 67.6114 17.4544 67.6114 14.6122C67.6114 11.77 69.9855 9.42933 72.8611 9.42933C75.7368 9.42933 78.1109 11.77 78.1109 14.6122C78.1109 17.4544 75.7368 19.7951 72.8611 19.7951Z" fill="white"/>
<path d="M63.3313 11.8369C63.3313 9.22871 61.1913 7.08868 58.5497 7.08868H49.9227V22.1023H52.2299V9.42933H58.5497C59.8872 9.42933 60.9572 10.5328 60.9572 11.8703C60.9572 13.2078 59.8872 14.2778 58.5497 14.3113H53.2665V22.1357H55.5737V16.6185H57.9812L60.9238 22.1357H63.5988L60.4222 16.2172C62.1275 15.4816 63.2979 13.7428 63.2979 11.8703L63.3313 11.8369Z" fill="white"/>
<path d="M21.4002 3.00942L0 1.33514e-05L11.9373 29.5925L28.4222 8.52666L21.4002 3.04286V3.00942ZM24.4431 8.09197L17.488 9.56324L21.0993 5.48382L24.4431 8.09197ZM18.8589 4.81506L14.4117 9.86417L5.55068 2.94254L18.8924 4.81506H18.8589ZM11.7701 23.3396L4.21317 4.64788L13.3751 11.8036L11.7701 23.3396ZM13.8767 23.6406L15.4817 12.2383L24.2424 10.3657L13.8767 23.6406Z" fill="#EA0029"/>
</g>
<defs>
<clipPath id="clip0_1_5515">
<rect width="96" height="30" fill="white"/>
</clipPath>
</defs>
</svg>
